<svg width="300" height="125" viewBox="0 0 300 125" fill="none" xmlns="http://www.w3.org/2000/svg">
<rect width="300" height="125" fill="white"/>
<path d="M125.863 59.6938C124.984 60.7274 123.694 61.2441 121.994 61.2441C120.586 61.2441 119.512 60.8372 118.771 60.0234C118.039 59.2015 117.668 57.9889 117.66 56.3857V47.792H119.918V56.3247C119.918 58.3267 120.732 59.3276 122.36 59.3276C124.085 59.3276 125.233 58.6847 125.802 57.3989V47.792H128.061V61H125.912L125.863 59.6938ZM142.66 54.5425C142.66 56.5526 142.2 58.172 141.281 59.4009C140.361 60.6297 139.116 61.2441 137.545 61.2441C135.942 61.2441 134.681 60.7355 133.761 59.7183V66.0781H131.503V47.792H133.566L133.676 49.2568C134.595 48.1175 135.873 47.5479 137.509 47.5479C139.096 47.5479 140.349 48.146 141.269 49.3423C142.196 50.5386 142.66 52.2028 142.66 54.335V54.5425ZM140.402 54.2861C140.402 52.7969 140.084 51.6209 139.45 50.7583C138.815 49.8957 137.944 49.4644 136.837 49.4644C135.47 49.4644 134.445 50.0706 133.761 51.2832V57.5942C134.437 58.7987 135.47 59.4009 136.862 59.4009C137.944 59.4009 138.803 58.9736 139.438 58.1191C140.08 57.2565 140.402 55.9788 140.402 54.2861ZM157.333 53.0776C155.323 52.4998 153.858 51.7918 152.938 50.9536C152.027 50.1073 151.571 49.0656 151.571 47.8286C151.571 46.4289 152.129 45.2733 153.244 44.3618C154.367 43.4422 155.823 42.9824 157.614 42.9824C158.834 42.9824 159.921 43.2184 160.873 43.6904C161.833 44.1624 162.574 44.8135 163.095 45.6436C163.624 46.4736 163.888 47.381 163.888 48.3657H161.532C161.532 47.2915 161.19 46.4492 160.507 45.8389C159.823 45.2204 158.859 44.9111 157.614 44.9111C156.458 44.9111 155.555 45.1675 154.904 45.6802C154.261 46.1847 153.939 46.8887 153.939 47.792C153.939 48.5163 154.245 49.1307 154.855 49.6353C155.473 50.1317 156.519 50.5874 157.992 51.0024C159.473 51.4175 160.629 51.8773 161.459 52.3818C162.297 52.8783 162.916 53.4601 163.314 54.1274C163.721 54.7948 163.925 55.5801 163.925 56.4834C163.925 57.9238 163.363 59.0794 162.24 59.9502C161.117 60.8128 159.616 61.2441 157.736 61.2441C156.515 61.2441 155.376 61.0122 154.318 60.5483C153.26 60.0763 152.442 59.4334 151.864 58.6196C151.295 57.8058 151.01 56.8822 151.01 55.8486H153.366C153.366 56.9229 153.76 57.7733 154.55 58.3999C155.347 59.0184 156.409 59.3276 157.736 59.3276C158.973 59.3276 159.921 59.0754 160.58 58.5708C161.239 58.0662 161.569 57.3786 161.569 56.5078C161.569 55.637 161.264 54.9657 160.653 54.4937C160.043 54.0135 158.936 53.5415 157.333 53.0776ZM177.743 54.5425C177.743 56.5526 177.283 58.172 176.364 59.4009C175.444 60.6297 174.199 61.2441 172.628 61.2441C171.025 61.2441 169.764 60.7355 168.844 59.7183V66.0781H166.586V47.792H168.649L168.759 49.2568C169.678 48.1175 170.956 47.5479 172.592 47.5479C174.179 47.5479 175.432 48.146 176.352 49.3423C177.279 50.5386 177.743 52.2028 177.743 54.335V54.5425ZM175.485 54.2861C175.485 52.7969 175.167 51.6209 174.533 50.7583C173.898 49.8957 173.027 49.4644 171.92 49.4644C170.553 49.4644 169.528 50.0706 168.844 51.2832V57.5942C169.52 58.7987 170.553 59.4009 171.945 59.4009C173.027 59.4009 173.886 58.9736 174.521 58.1191C175.163 57.2565 175.485 55.9788 175.485 54.2861ZM180.026 54.2739C180.026 52.98 180.278 51.8162 180.783 50.7827C181.295 49.7492 182.003 48.9517 182.907 48.3901C183.818 47.8286 184.856 47.5479 186.02 47.5479C187.818 47.5479 189.271 48.1704 190.377 49.4155C191.492 50.6606 192.05 52.3167 192.05 54.3838V54.5425C192.05 55.8283 191.802 56.9839 191.305 58.0093C190.817 59.0265 190.113 59.82 189.193 60.3896C188.282 60.9593 187.232 61.2441 186.044 61.2441C184.254 61.2441 182.801 60.6216 181.686 59.3765C180.579 58.1313 180.026 56.4834 180.026 54.4326V54.2739ZM182.296 54.5425C182.296 56.0073 182.634 57.1833 183.31 58.0703C183.993 58.9574 184.905 59.4009 186.044 59.4009C187.191 59.4009 188.103 58.9533 188.778 58.0581C189.454 57.1548 189.792 55.8934 189.792 54.2739C189.792 52.8254 189.446 51.6535 188.754 50.7583C188.07 49.855 187.159 49.4033 186.02 49.4033C184.905 49.4033 184.005 49.8468 183.322 50.7339C182.638 51.6209 182.296 52.8905 182.296 54.5425ZM197.946 44.5938V47.792H200.412V49.5376H197.946V57.7285C197.946 58.2575 198.056 58.6562 198.275 58.9248C198.495 59.1852 198.869 59.3154 199.398 59.3154C199.659 59.3154 200.017 59.2666 200.473 59.1689V61C199.879 61.1628 199.301 61.2441 198.739 61.2441C197.73 61.2441 196.969 60.939 196.457 60.3286C195.944 59.7183 195.688 58.8516 195.688 57.7285V49.5376H193.283V47.792H195.688V44.5938H197.946ZM205.514 61H203.256V47.792H205.514V61ZM203.073 44.2886C203.073 43.9224 203.183 43.6131 203.402 43.3608C203.63 43.1086 203.964 42.9824 204.403 42.9824C204.843 42.9824 205.176 43.1086 205.404 43.3608C205.632 43.6131 205.746 43.9224 205.746 44.2886C205.746 44.6548 205.632 44.96 205.404 45.2041C205.176 45.4482 204.843 45.5703 204.403 45.5703C203.964 45.5703 203.63 45.4482 203.402 45.2041C203.183 44.96 203.073 44.6548 203.073 44.2886ZM210.25 61V49.5376H208.163V47.792H210.25V46.437C210.25 45.021 210.629 43.9264 211.386 43.1533C212.143 42.3802 213.213 41.9937 214.596 41.9937C215.117 41.9937 215.634 42.0628 216.146 42.2012L216.024 44.0322C215.642 43.959 215.235 43.9224 214.804 43.9224C214.071 43.9224 213.506 44.138 213.107 44.5693C212.708 44.9925 212.509 45.6029 212.509 46.4004V47.792H215.329V49.5376H212.509V61H210.25ZM222.152 57.6919L225.229 47.792H227.646L222.335 63.0386C221.514 65.2358 220.207 66.3345 218.417 66.3345L217.99 66.2979L217.147 66.1392V64.3081L217.758 64.3569C218.523 64.3569 219.117 64.2023 219.54 63.8931C219.971 63.5838 220.325 63.0182 220.602 62.1963L221.103 60.8535L216.391 47.792H218.856L222.152 57.6919Z" fill="black"/>
<path d="M86.1855 58.6685C85.5833 59.5311 84.741 60.1781 83.6587 60.6094C82.5845 61.0326 81.3312 61.2441 79.8989 61.2441C78.4504 61.2441 77.1646 60.9064 76.0415 60.231C74.9185 59.5474 74.0477 58.5789 73.4292 57.3257C72.8188 56.0724 72.5055 54.6198 72.4893 52.9678V51.4175C72.4893 48.7401 73.1118 46.6649 74.3569 45.1919C75.6102 43.7189 77.368 42.9824 79.6304 42.9824C81.4858 42.9824 82.9792 43.4585 84.1104 44.4106C85.2415 45.3547 85.9333 46.6974 86.1855 48.439H83.8418C83.4023 46.0871 82.0026 44.9111 79.6426 44.9111C78.0719 44.9111 76.8797 45.4645 76.0659 46.5713C75.2603 47.6699 74.8534 49.265 74.8452 51.3564V52.8091C74.8452 54.8029 75.3009 56.3898 76.2124 57.5698C77.1239 58.7417 78.3568 59.3276 79.9111 59.3276C80.79 59.3276 81.5591 59.23 82.2183 59.0347C82.8774 58.8394 83.4227 58.5098 83.854 58.0459V54.0542H79.7402V52.1499H86.1855V58.6685ZM96.1343 49.8184C95.7925 49.7614 95.4222 49.7329 95.0234 49.7329C93.5423 49.7329 92.5373 50.3636 92.0083 51.625V61H89.75V47.792H91.9473L91.9839 49.3179C92.7244 48.1379 93.7743 47.5479 95.1333 47.5479C95.5728 47.5479 95.9064 47.6048 96.1343 47.7188V49.8184Z" fill="black"/>
<path d="M113.111 52.2537C112.921 48.8085 110.047 46 106.5 46C102.952 46 100.079 48.8091 99.8893 52.2537C99.3725 52.4321 99 52.9232 99 53.5V56.1367C99 56.8637 99.5914 57.4551 100.318 57.4551H102.516C102.516 57.2107 102.516 52.8248 102.516 52.6211C102.516 50.4241 104.303 48.6367 106.5 48.6367C108.697 48.6367 110.484 50.4241 110.484 52.6211V57.4548L111.288 57.4551C111.106 57.9666 110.618 58.334 110.045 58.334H108.258C107.043 58.334 106.061 59.3458 106.061 60.5605V61H106.939V60.5605C106.939 59.83 107.543 59.2129 108.258 59.2129H110.045C111.106 59.2129 111.994 58.4568 112.198 57.4551H112.682C113.409 57.4551 114 56.8637 114 56.1367V53.5C114 52.9232 113.628 52.4321 113.111 52.2537ZM101.637 56.5762H100.318C100.076 56.5762 99.8789 56.379 99.8789 56.1367V53.5C99.8789 53.2577 100.076 53.0605 100.318 53.0605H101.637V56.5762ZM106.5 47.7578C103.964 47.7578 101.878 49.7343 101.657 52.1816H100.774C101 49.2199 103.482 46.8789 106.5 46.8789C109.518 46.8789 112 49.2199 112.226 52.1816H111.343C111.122 49.7354 109.037 47.7578 106.5 47.7578ZM113.121 56.1367C113.121 56.379 112.924 56.5762 112.682 56.5762H111.363V53.0605H112.682C112.924 53.0605 113.121 53.2577 113.121 53.5V56.1367Z" fill="#69E781"/>
<path d="M105.443 74.4688L108.232 81.4297L111.021 74.4688H112.48V83H111.355V79.6777L111.461 76.0918L108.66 83H107.799L105.004 76.1094L105.115 79.6777V83H103.99V74.4688H105.443ZM118.211 82.373C117.789 82.8691 117.17 83.1172 116.354 83.1172C115.678 83.1172 115.162 82.9219 114.807 82.5312C114.455 82.1367 114.277 81.5547 114.273 80.7852V76.6602H115.357V80.7559C115.357 81.7168 115.748 82.1973 116.529 82.1973C117.357 82.1973 117.908 81.8887 118.182 81.2715V76.6602H119.266V83H118.234L118.211 82.373ZM124.609 81.3184C124.609 81.0254 124.498 80.7988 124.275 80.6387C124.057 80.4746 123.672 80.334 123.121 80.2168C122.574 80.0996 122.139 79.959 121.814 79.7949C121.494 79.6309 121.256 79.4355 121.1 79.209C120.947 78.9824 120.871 78.7129 120.871 78.4004C120.871 77.8809 121.09 77.4414 121.527 77.082C121.969 76.7227 122.531 76.543 123.215 76.543C123.934 76.543 124.516 76.7285 124.961 77.0996C125.41 77.4707 125.635 77.9453 125.635 78.5234H124.545C124.545 78.2266 124.418 77.9707 124.164 77.7559C123.914 77.541 123.598 77.4336 123.215 77.4336C122.82 77.4336 122.512 77.5195 122.289 77.6914C122.066 77.8633 121.955 78.0879 121.955 78.3652C121.955 78.627 122.059 78.8242 122.266 78.957C122.473 79.0898 122.846 79.2168 123.385 79.3379C123.928 79.459 124.367 79.6035 124.703 79.7715C125.039 79.9395 125.287 80.1426 125.447 80.3809C125.611 80.6152 125.693 80.9023 125.693 81.2422C125.693 81.8086 125.467 82.2637 125.014 82.6074C124.561 82.9473 123.973 83.1172 123.25 83.1172C122.742 83.1172 122.293 83.0273 121.902 82.8477C121.512 82.668 121.205 82.418 120.982 82.0977C120.764 81.7734 120.654 81.4238 120.654 81.0488H121.738C121.758 81.4121 121.902 81.7012 122.172 81.916C122.445 82.127 122.805 82.2324 123.25 82.2324C123.66 82.2324 123.988 82.1504 124.234 81.9863C124.484 81.8184 124.609 81.5957 124.609 81.3184ZM128.283 83H127.199V76.6602H128.283V83ZM127.111 74.9785C127.111 74.8027 127.164 74.6543 127.27 74.5332C127.379 74.4121 127.539 74.3516 127.75 74.3516C127.961 74.3516 128.121 74.4121 128.23 74.5332C128.34 74.6543 128.395 74.8027 128.395 74.9785C128.395 75.1543 128.34 75.3008 128.23 75.418C128.121 75.5352 127.961 75.5938 127.75 75.5938C127.539 75.5938 127.379 75.5352 127.27 75.418C127.164 75.3008 127.111 75.1543 127.111 74.9785ZM132.566 82.2324C132.953 82.2324 133.291 82.1152 133.58 81.8809C133.869 81.6465 134.029 81.3535 134.061 81.002H135.086C135.066 81.3652 134.941 81.7109 134.711 82.0391C134.48 82.3672 134.172 82.6289 133.785 82.8242C133.402 83.0195 132.996 83.1172 132.566 83.1172C131.703 83.1172 131.016 82.8301 130.504 82.2559C129.996 81.6777 129.742 80.8887 129.742 79.8887V79.707C129.742 79.0898 129.855 78.541 130.082 78.0605C130.309 77.5801 130.633 77.207 131.055 76.9414C131.48 76.6758 131.982 76.543 132.561 76.543C133.271 76.543 133.861 76.7559 134.33 77.1816C134.803 77.6074 135.055 78.1602 135.086 78.8398H134.061C134.029 78.4297 133.873 78.0938 133.592 77.832C133.314 77.5664 132.971 77.4336 132.561 77.4336C132.01 77.4336 131.582 77.6328 131.277 78.0312C130.977 78.4258 130.826 78.998 130.826 79.748V79.9531C130.826 80.6836 130.977 81.2461 131.277 81.6406C131.578 82.0352 132.008 82.2324 132.566 82.2324ZM136.328 82.4316C136.328 82.2441 136.383 82.0879 136.492 81.9629C136.605 81.8379 136.773 81.7754 136.996 81.7754C137.219 81.7754 137.387 81.8379 137.5 81.9629C137.617 82.0879 137.676 82.2441 137.676 82.4316C137.676 82.6113 137.617 82.7617 137.5 82.8828C137.387 83.0039 137.219 83.0645 136.996 83.0645C136.773 83.0645 136.605 83.0039 136.492 82.8828C136.383 82.7617 136.328 82.6113 136.328 82.4316ZM146.201 79.0098C146.201 79.8457 146.061 80.5762 145.779 81.2012C145.498 81.8223 145.1 82.2969 144.584 82.625C144.068 82.9531 143.467 83.1172 142.779 83.1172C142.107 83.1172 141.512 82.9531 140.992 82.625C140.473 82.293 140.068 81.8223 139.779 81.2129C139.494 80.5996 139.348 79.8906 139.34 79.0859V78.4707C139.34 77.6504 139.482 76.9258 139.768 76.2969C140.053 75.668 140.455 75.1875 140.975 74.8555C141.498 74.5195 142.096 74.3516 142.768 74.3516C143.451 74.3516 144.053 74.5176 144.572 74.8496C145.096 75.1777 145.498 75.6562 145.779 76.2852C146.061 76.9102 146.201 77.6387 146.201 78.4707V79.0098ZM145.082 78.459C145.082 77.4473 144.879 76.6719 144.473 76.1328C144.066 75.5898 143.498 75.3184 142.768 75.3184C142.057 75.3184 141.496 75.5898 141.086 76.1328C140.68 76.6719 140.471 77.4219 140.459 78.3828V79.0098C140.459 79.9902 140.664 80.7617 141.074 81.3242C141.488 81.8828 142.057 82.1621 142.779 82.1621C143.506 82.1621 144.068 81.8984 144.467 81.3711C144.865 80.8398 145.07 80.0801 145.082 79.0918V78.459ZM148.744 76.6602L148.779 77.457C149.264 76.8477 149.896 76.543 150.678 76.543C152.018 76.543 152.693 77.2988 152.705 78.8105V83H151.621V78.8047C151.617 78.3477 151.512 78.0098 151.305 77.791C151.102 77.5723 150.783 77.4629 150.35 77.4629C149.998 77.4629 149.689 77.5566 149.424 77.7441C149.158 77.9316 148.951 78.1777 148.803 78.4824V83H147.719V76.6602H148.744ZM156.971 83.1172C156.111 83.1172 155.412 82.8359 154.873 82.2734C154.334 81.707 154.064 80.9512 154.064 80.0059V79.8066C154.064 79.1777 154.184 78.6172 154.422 78.125C154.664 77.6289 155 77.2422 155.43 76.9648C155.863 76.6836 156.332 76.543 156.836 76.543C157.66 76.543 158.301 76.8145 158.758 77.3574C159.215 77.9004 159.443 78.6777 159.443 79.6895V80.1406H155.148C155.164 80.7656 155.346 81.2715 155.693 81.6582C156.045 82.041 156.49 82.2324 157.029 82.2324C157.412 82.2324 157.736 82.1543 158.002 81.998C158.268 81.8418 158.5 81.6348 158.699 81.377L159.361 81.8926C158.83 82.709 158.033 83.1172 156.971 83.1172ZM156.836 77.4336C156.398 77.4336 156.031 77.5938 155.734 77.9141C155.438 78.2305 155.254 78.6758 155.184 79.25H158.359V79.168C158.328 78.6172 158.18 78.1914 157.914 77.8906C157.648 77.5859 157.289 77.4336 156.836 77.4336ZM164.213 83V77.498H163.211V76.6602H164.213V76.0098C164.213 75.3301 164.395 74.8047 164.758 74.4336C165.121 74.0625 165.635 73.877 166.299 73.877C166.549 73.877 166.797 73.9102 167.043 73.9766L166.984 74.8555C166.801 74.8203 166.605 74.8027 166.398 74.8027C166.047 74.8027 165.775 74.9062 165.584 75.1133C165.393 75.3164 165.297 75.6094 165.297 75.9922V76.6602H166.65V77.498H165.297V83H164.213ZM167.564 79.7715C167.564 79.1504 167.686 78.5918 167.928 78.0957C168.174 77.5996 168.514 77.2168 168.947 76.9473C169.385 76.6777 169.883 76.543 170.441 76.543C171.305 76.543 172.002 76.8418 172.533 77.4395C173.068 78.0371 173.336 78.832 173.336 79.8242V79.9004C173.336 80.5176 173.217 81.0723 172.979 81.5645C172.744 82.0527 172.406 82.4336 171.965 82.707C171.527 82.9805 171.023 83.1172 170.453 83.1172C169.594 83.1172 168.896 82.8184 168.361 82.2207C167.83 81.623 167.564 80.832 167.564 79.8477V79.7715ZM168.654 79.9004C168.654 80.6035 168.816 81.168 169.141 81.5938C169.469 82.0195 169.906 82.2324 170.453 82.2324C171.004 82.2324 171.441 82.0176 171.766 81.5879C172.09 81.1543 172.252 80.5488 172.252 79.7715C172.252 79.0762 172.086 78.5137 171.754 78.084C171.426 77.6504 170.988 77.4336 170.441 77.4336C169.906 77.4336 169.475 77.6465 169.146 78.0723C168.818 78.498 168.654 79.1074 168.654 79.9004ZM177.76 77.6328C177.596 77.6055 177.418 77.5918 177.227 77.5918C176.516 77.5918 176.033 77.8945 175.779 78.5V83H174.695V76.6602H175.75L175.768 77.3926C176.123 76.8262 176.627 76.543 177.279 76.543C177.49 76.543 177.65 76.5703 177.76 76.625V77.6328ZM186.619 80.7734H183.045L182.242 83H181.082L184.34 74.4688H185.324L188.588 83H187.434L186.619 80.7734ZM183.385 79.8477H186.285L184.832 75.8574L183.385 79.8477ZM190.744 83H189.66V74H190.744V83ZM193.662 83H192.578V74H193.662V83ZM195.426 82.4316C195.426 82.2441 195.48 82.0879 195.59 81.9629C195.703 81.8379 195.871 81.7754 196.094 81.7754C196.316 81.7754 196.484 81.8379 196.598 81.9629C196.715 82.0879 196.773 82.2441 196.773 82.4316C196.773 82.6113 196.715 82.7617 196.598 82.8828C196.484 83.0039 196.316 83.0645 196.094 83.0645C195.871 83.0645 195.703 83.0039 195.59 82.8828C195.48 82.7617 195.426 82.6113 195.426 82.4316Z" fill="black"/>
</svg>
